<?xml version="1.0" encoding="UTF-8"?>
<svg id="Layer_1" data-name="Layer 1" xmlns="http://www.w3.org/2000/svg" xmlns:xlink="http://www.w3.org/1999/xlink" viewBox="0 0 1080 438.53">
  <defs>
    <style>
      .cls-1 {
        fill: url(#linear-gradient);
      }

      .cls-1, .cls-2 {
        stroke-width: 0px;
      }

      .cls-2 {
        fill: #3aa893;
      }
    </style>
    <linearGradient id="linear-gradient" x1="467.46" y1="106.67" x2="639.84" y2="210.09" gradientUnits="userSpaceOnUse">
      <stop offset="0" stop-color="#217d83"/>
      <stop offset=".1" stop-color="#2b8e89"/>
      <stop offset=".36" stop-color="#39a592"/>
      <stop offset=".77" stop-color="#4cc59e"/>
      <stop offset="1" stop-color="#54d2a3"/>
    </linearGradient>
  </defs>
  <path class="cls-1" d="M591.77,96.16c-22.32-34.68-35.57-65.66-43.07-86.98-2.89-8.23-14.51-8.23-17.4,0-7.5,21.33-20.75,52.3-43.07,86.98-17.09,26.55-40.88,57.12-40.6,96.02.35,48.3,39.7,89.35,87.96,91.6,53.03,2.47,96.8-39.79,96.8-92.28,0-38.58-23.61-68.94-40.61-95.34Z"/>
  <g>
    <path class="cls-2" d="M4.37,416.42v-69.72h16.6v56.27h26.71v13.45H4.37Z"/>
    <path class="cls-2" d="M52.72,402.28c0-8.74,5.6-13.95,15.32-15.13l17.67-2.36v-3.24c0-3.73-2.45-5.99-7.56-5.99s-8.06,2.06-8.45,5.89h-14.92c.58-10.8,9.82-17.08,23.66-17.08s22.59,6.67,22.59,17.28v34.76h-14.73l-.49-7.56c-3.04,5.5-8.75,8.84-16.4,8.84-9.83,0-16.7-6.48-16.7-15.42ZM85.72,397.96v-3.63l-11.98,1.57c-3.92.49-5.8,2.36-5.8,5.4,0,3.34,2.46,5.3,6.98,5.3,5.89,0,10.8-3.44,10.8-8.64Z"/>
    <path class="cls-2" d="M109.91,416.42v-50.77h15.02l.3,9.92c2.35-5.89,7.17-10.8,14.83-10.8,1.08,0,2.26.1,3.14.3v15.03c-1.08-.1-2.65-.2-4.12-.2-9.13,0-13.45,4.51-13.45,12.86v23.66h-15.72Z"/>
    <path class="cls-2" d="M149.71,416.42v-50.77h15.02l.3,9.92c2.35-5.89,7.17-10.8,14.83-10.8,1.08,0,2.26.1,3.14.3v15.03c-1.08-.1-2.65-.2-4.12-.2-9.13,0-13.45,4.51-13.45,12.86v23.66h-15.72Z"/>
    <path class="cls-2" d="M199.03,433.12l6.68-17.29-19.25-50.18h16.6l10.9,33.29,10.6-33.29h16.01l-25.34,67.47h-16.2Z"/>
    <path class="cls-2" d="M263.3,416.42v-69.72h30.64c14.83,0,25.93,7.86,25.93,22.59v.98c0,14.83-11,22.58-25.93,22.58h-14.24v23.57h-16.4ZM279.7,379.4h12.47c6.28,0,10.61-2.75,10.61-9.13v-.98c0-6.38-4.33-9.13-10.61-9.13h-12.47v19.25Z"/>
    <path class="cls-2" d="M321.87,391.48v-.98c0-15.32,10.61-26.12,26.62-26.12s26.61,10.8,26.61,26.12v.98c0,15.42-10.51,26.22-26.61,26.22s-26.62-10.8-26.62-26.22ZM359.19,391.48v-.98c0-9.23-3.24-14.14-10.7-14.14s-10.71,4.91-10.71,14.14v.98c0,9.33,3.33,14.24,10.71,14.24s10.7-4.91,10.7-14.24Z"/>
    <path class="cls-2" d="M386.73,401.1v-24.16h-9.23v-11.3h9.23v-16.2h15.72v16.2h12.77v11.3h-12.77v23.07c0,4.03,1.96,5.69,6.87,5.69,2.35,0,4.32-.49,6.09-.98v11.68c-2.66.79-6.58,1.28-9.92,1.28-12.87,0-18.76-5.7-18.76-16.6Z"/>
    <path class="cls-2" d="M428.4,401.1v-24.16h-9.24v-11.3h9.24v-16.2h15.71v16.2h12.77v11.3h-12.77v23.07c0,4.03,1.97,5.69,6.87,5.69,2.36,0,4.32-.49,6.09-.98v11.68c-2.65.79-6.58,1.28-9.92,1.28-12.86,0-18.75-5.7-18.75-16.6Z"/>
    <path class="cls-2" d="M461.41,391.48v-.98c0-15.61,10.51-26.12,26.82-26.12,17.67,0,26.51,12.37,25.43,30.24h-36.63c.69,7.76,4.33,11.49,11.1,11.49,5.6,0,8.74-2.75,9.82-5.99h15.43c-2.46,10.71-11.6,17.58-25.14,17.58-16.6,0-26.82-10.31-26.82-26.22ZM497.85,385.49c-.39-5.79-3.53-9.53-9.82-9.53s-9.72,2.95-10.81,9.53h20.62Z"/>
    <path class="cls-2" d="M521.45,416.42v-50.77h15.02l.3,9.92c2.35-5.89,7.17-10.8,14.83-10.8,1.08,0,2.26.1,3.14.3v15.03c-1.08-.1-2.65-.2-4.12-.2-9.13,0-13.45,4.51-13.45,12.86v23.66h-15.72Z"/>
    <path class="cls-2" d="M578.64,416.42v-69.72h16.6v56.27h26.71v13.45h-43.31Z"/>
    <path class="cls-2" d="M626.99,402.28c0-8.74,5.6-13.95,15.32-15.13l17.67-2.36v-3.24c0-3.73-2.45-5.99-7.56-5.99s-8.06,2.06-8.45,5.89h-14.92c.58-10.8,9.82-17.08,23.66-17.08s22.59,6.67,22.59,17.28v34.76h-14.73l-.49-7.56c-3.04,5.5-8.75,8.84-16.4,8.84-9.83,0-16.7-6.48-16.7-15.42ZM659.99,397.96v-3.63l-11.98,1.57c-3.92.49-5.8,2.36-5.8,5.4,0,3.34,2.46,5.3,6.98,5.3,5.89,0,10.8-3.44,10.8-8.64Z"/>
    <path class="cls-2" d="M684.18,416.42v-50.77h15.02l.39,7.76c2.45-4.52,7.47-9.03,16.01-9.03,12.86,0,17.67,8.15,17.67,19.44v32.6h-15.71v-28.58c0-6.87-2.16-10.9-8.16-10.9s-9.52,4.12-9.52,11.59v27.89h-15.72Z"/>
    <path class="cls-2" d="M740.49,391.48v-.98c0-14.83,8.05-26.12,21.7-26.12,7.27,0,12.47,3.43,15.31,7.95v-28.58h15.81v72.67h-14.63l-.49-8.15c-2.06,4.71-7.37,9.43-15.52,9.43-13.75,0-22.19-11.1-22.19-26.22ZM778.01,391.48v-.98c0-9.43-3.54-14.34-10.8-14.34s-10.81,4.91-10.81,14.34v.98c0,9.33,3.54,14.34,10.81,14.34s10.8-5.01,10.8-14.34Z"/>
    <path class="cls-2" d="M800.43,400.12h14.93c.59,4.32,4.03,6.78,9.24,6.78,4.71,0,7.56-1.86,7.56-4.81,0-2.75-1.67-4.42-10.71-5.99-13.55-2.16-19.54-6.48-19.54-15.61,0-9.72,8.94-16.1,22.1-16.1s21.8,6.19,22.58,16.69h-14.63c-.39-3.92-3.54-5.99-8.15-5.99-4.33,0-6.87,1.77-6.87,4.52s2.06,4.22,10.71,5.5c14.33,2.06,19.93,6.87,19.93,15.52,0,10.21-8.84,17.09-23.08,17.09s-23.28-6.58-24.06-17.58Z"/>
    <path class="cls-2" d="M852.32,391.48v-.98c0-15.71,9.92-26.12,25.93-26.12,13.65,0,22.78,7.85,24.25,21.01h-15.42c-.68-5.4-3.14-9.03-9.03-9.03-6.78,0-9.83,5.1-9.83,14.14v.98c0,9.23,3.04,14.24,9.83,14.24,5.89,0,8.35-3.63,9.03-8.94h15.42c-1.47,13.06-10.6,20.92-24.25,20.92-16.01,0-25.93-10.41-25.93-26.22Z"/>
    <path class="cls-2" d="M907.35,402.28c0-8.74,5.6-13.95,15.32-15.13l17.67-2.36v-3.24c0-3.73-2.45-5.99-7.56-5.99s-8.06,2.06-8.45,5.89h-14.92c.58-10.8,9.82-17.08,23.66-17.08s22.59,6.67,22.59,17.28v34.76h-14.73l-.49-7.56c-3.04,5.5-8.75,8.84-16.4,8.84-9.83,0-16.7-6.48-16.7-15.42ZM940.35,397.96v-3.63l-11.98,1.57c-3.92.49-5.8,2.36-5.8,5.4,0,3.34,2.46,5.3,6.98,5.3,5.89,0,10.8-3.44,10.8-8.64Z"/>
    <path class="cls-2" d="M964.54,433.12v-67.47h14.63l.5,8.06c2.15-4.72,7.65-9.33,15.71-9.33,13.75,0,22,11.19,22,26.12v.98c0,15.02-8.25,26.22-21.9,26.22-7.07,0-12.48-3.54-15.13-8.25v23.67h-15.81ZM1001.46,391.48v-.98c0-9.43-3.53-14.34-10.8-14.34s-10.8,4.91-10.8,14.34v.98c0,9.33,3.53,14.34,10.8,14.34s10.8-5.01,10.8-14.34Z"/>
    <path class="cls-2" d="M1023.3,391.48v-.98c0-15.61,10.51-26.12,26.81-26.12,17.67,0,26.52,12.37,25.43,30.24h-36.62c.68,7.76,4.32,11.49,11.1,11.49,5.59,0,8.74-2.75,9.82-5.99h15.42c-2.45,10.71-11.59,17.58-25.14,17.58-16.6,0-26.81-10.31-26.81-26.22ZM1059.73,385.49c-.38-5.79-3.53-9.53-9.82-9.53s-9.72,2.95-10.8,9.53h20.62Z"/>
  </g>
</svg>
